<svg width="22" height="22" viewBox="0 0 22 22" fill="none" xmlns="http://www.w3.org/2000/svg">
<path d="M7.7502 10.9992C7.7502 10.6412 7.60796 10.2978 7.35479 10.0446C7.10162 9.79145 6.75824 9.64922 6.4002 9.64922C6.04215 9.64922 5.69878 9.79145 5.4456 10.0446C5.19243 10.2978 5.0502 10.6412 5.0502 10.9992C5.0502 11.3573 5.19243 11.7006 5.4456 11.9538C5.69878 12.207 6.04215 12.3492 6.4002 12.3492C6.75824 12.3492 7.10162 12.207 7.35479 11.9538C7.60796 11.7006 7.7502 11.3573 7.7502 10.9992ZM12.5502 10.9992C12.5502 10.6412 12.408 10.2978 12.1548 10.0446C11.9016 9.79145 11.5582 9.64922 11.2002 9.64922C10.8422 9.64922 10.4988 9.79145 10.2456 10.0446C9.99243 10.2978 9.8502 10.6412 9.8502 10.9992C9.8502 11.3573 9.99243 11.7006 10.2456 11.9538C10.4988 12.207 10.8422 12.3492 11.2002 12.3492C11.5582 12.3492 11.9016 12.207 12.1548 11.9538C12.408 11.7006 12.5502 11.3573 12.5502 10.9992ZM17.3502 10.9992C17.3502 10.6412 17.208 10.2978 16.9548 10.0446C16.7016 9.79145 16.3582 9.64922 16.0002 9.64922C15.6422 9.64922 15.2988 9.79145 15.0456 10.0446C14.7924 10.2978 14.6502 10.6412 14.6502 10.9992C14.6502 11.3573 14.7924 11.7006 15.0456 11.9538C15.2988 12.207 15.6422 12.3492 16.0002 12.3492C16.3582 12.3492 16.7016 12.207 16.9548 11.9538C17.208 11.7006 17.3502 11.3573 17.3502 10.9992Z" fill="#737373" stroke="#737373" stroke-width="0.3"/>
</svg>
